<?xml version="1.0" encoding="utf-8"?>
<!-- Generator: Adobe Illustrator 17.0.0, SVG Export Plug-In . SVG Version: 6.00 Build 0)  -->
<!DOCTYPE svg PUBLIC "-//W3C//DTD SVG 1.1//EN" "http://www.w3.org/Graphics/SVG/1.1/DTD/svg11.dtd">
<svg version="1.1" id="Capa_1" xmlns="http://www.w3.org/2000/svg" xmlns:xlink="http://www.w3.org/1999/xlink" x="0px" y="0px"
	 width="1024px" height="500px" viewBox="0 0 1024 500" enable-background="new 0 0 1024 500" xml:space="preserve">
<g>
	<g>
		<g>
			<defs>
				<filter id="Adobe_OpacityMaskFilter" filterUnits="userSpaceOnUse" x="414.661" y="54.718" width="202.406" height="202.406">
					
						<feColorMatrix  type="matrix" values="-1 0 0 0 1  0 -1 0 0 1  0 0 -1 0 1  0 0 0 1 0" color-interpolation-filters="sRGB" result="source"/>
					<feFlood  style="flood-color:white;flood-opacity:1" result="back"/>
					<feBlend  in="source" in2="back" mode="normal"/>
				</filter>
			</defs>
			<mask maskUnits="userSpaceOnUse" x="414.661" y="54.718" width="202.406" height="202.406" id="SVGID_1_">
				<g filter="url(#Adobe_OpacityMaskFilter)">
					<circle fill="#FFFFFF" cx="516.619" cy="155.921" r="94.225"/>
					<rect x="410.422" y="155.391" fill="#FFFFFF" width="211.944" height="107.032"/>
				</g>
			</mask>
			<circle mask="url(#SVGID_1_)" fill="#00A287" cx="515.864" cy="155.921" r="101.203"/>
			<g>
				<path fill="#00A287" d="M605,128.312c14,0,28.403,12.717,28.403,28.403S619,185.119,605,185.119V128.312z"/>
			</g>
			<g>
				<path fill="#00A287" d="M428,128.312c-15,0-28.403,12.717-28.403,28.403S413,185.119,428,185.119V128.312z"/>
			</g>
		</g>
		<g>
			<defs>
				
					<filter id="Adobe_OpacityMaskFilter_1_" filterUnits="userSpaceOnUse" x="430.557" y="70.613" width="170.615" height="170.615">
					
						<feColorMatrix  type="matrix" values="-1 0 0 0 1  0 -1 0 0 1  0 0 -1 0 1  0 0 0 1 0" color-interpolation-filters="sRGB" result="source"/>
					<feFlood  style="flood-color:white;flood-opacity:1" result="back"/>
					<feBlend  in="source" in2="back" mode="normal"/>
				</filter>
			</defs>
			<mask maskUnits="userSpaceOnUse" x="430.557" y="70.613" width="170.615" height="170.615" id="SVGID_2_">
				<g filter="url(#Adobe_OpacityMaskFilter_1_)">
					<circle fill="#FFFFFF" cx="515.864" cy="155.921" r="56.426"/>
				</g>
			</mask>
			<circle mask="url(#SVGID_2_)" fill="#00A287" cx="515.864" cy="155.921" r="85.307"/>
			<defs>
				<filter id="Adobe_OpacityMaskFilter_2_" filterUnits="userSpaceOnUse" x="491.209" y="227.75" width="99.692" height="40.202">
					
						<feColorMatrix  type="matrix" values="-1 0 0 0 1  0 -1 0 0 1  0 0 -1 0 1  0 0 0 1 0" color-interpolation-filters="sRGB" result="source"/>
					<feFlood  style="flood-color:white;flood-opacity:1" result="back"/>
					<feBlend  in="source" in2="back" mode="normal"/>
				</filter>
			</defs>
			<mask maskUnits="userSpaceOnUse" x="491.209" y="227.75" width="99.692" height="40.202" id="SVGID_3_">
				<g filter="url(#Adobe_OpacityMaskFilter_2_)">
					<polygon fill="#FFFFFF" points="589.209,245.025 572.828,268.419 557.285,251.983 592.756,238.544 					"/>
				</g>
			</mask>
			<path mask="url(#SVGID_3_)" fill="#00A287" d="M534.432,227.75c2.632,0.777,4.996,1.627,7.087,2.557
				c2.091,0.93,5.421,2.596,9.992,4.996c4.568,2.4,8.907,4.103,13.014,5.112c4.103,1.006,7.938,1.511,11.503,1.511
				c2.941,0,5.497-0.156,7.669-0.465c2.167-0.312,4.568-1.009,7.203-2.091l-18.59,28.583c-0.777,0-1.706,0-2.789,0
				c-1.086,0-1.939,0-2.557,0c-13.634,0-25.602-3.06-35.903-9.179c-10.305-6.122-18.321-10.806-24.052-14.059
				c-5.733-3.254-11.001-6.122-15.802-8.598L534.432,227.75z"/>
		</g>
	</g>
	<defs>
		<filter id="Adobe_OpacityMaskFilter_3_" filterUnits="userSpaceOnUse" x="492.428" y="119.023" width="64.922" height="74.037">
			
				<feColorMatrix  type="matrix" values="-1 0 0 0 1  0 -1 0 0 1  0 0 -1 0 1  0 0 0 1 0" color-interpolation-filters="sRGB" result="source"/>
			<feFlood  style="flood-color:white;flood-opacity:1" result="back"/>
			<feBlend  in="source" in2="back" mode="normal"/>
		</filter>
	</defs>
	<mask maskUnits="userSpaceOnUse" x="492.428" y="119.023" width="64.922" height="74.037" id="SVGID_4_">
		<g filter="url(#Adobe_OpacityMaskFilter_3_)">
			<g>
				<rect x="500.682" y="137.585" fill="#FFFFFF" width="23.188" height="1.784"/>
				<rect x="500.682" y="173.258" fill="#FFFFFF" width="23.188" height="1.784"/>
				<rect x="504.25" y="146.503" fill="#FFFFFF" width="32.106" height="1.784"/>
				<rect x="504.25" y="164.34" fill="#FFFFFF" width="32.106" height="1.784"/>
				<rect x="495.331" y="155.421" fill="#FFFFFF" width="32.106" height="1.784"/>
			</g>
		</g>
	</mask>
	<g mask="url(#SVGID_4_)">
		<path fill="#00A287" d="M555.813,158.702l-37.042,21.385l-4.934,2.85l-16.802,9.701c-1.386,0.8-2.609,0.265-3.071,0
			c-0.462-0.268-1.536-1.061-1.536-2.662v-67.869c0-1.603,1.074-2.394,1.536-2.662c0.281-0.161,0.842-0.422,1.552-0.422
			c0.458,0,0.975,0.108,1.519,0.422l18.447,10.649l40.331,23.286c1.386,0.8,1.536,2.127,1.536,2.66
			C557.35,156.575,557.199,157.902,555.813,158.702z"/>
	</g>
</g>
<g>
	<g>
		<path fill="#00A287" d="M363.236,428.231v-10.853c0-0.623-0.227-1.122-0.681-1.498c-0.454-0.376-1.07-0.564-1.848-0.564
			c-0.804,0-1.459,0.194-1.965,0.583c-0.506,0.389-0.758,0.908-0.758,1.556v10.776h-5.719v-10.853c0-0.623-0.228-1.122-0.681-1.498
			c-0.454-0.376-1.096-0.564-1.925-0.564c-0.778,0-1.42,0.201-1.926,0.603c-0.506,0.402-0.758,0.914-0.758,1.536v10.776h-5.718
			v-17.622h5.018l0.156,1.751c0.492-0.648,1.173-1.18,2.042-1.595c0.869-0.414,1.899-0.622,3.093-0.622
			c1.115,0,2.101,0.208,2.957,0.622c0.856,0.415,1.543,0.96,2.062,1.634c0.545-0.648,1.348-1.186,2.412-1.614
			c1.063-0.428,2.218-0.642,3.462-0.642c2.023,0,3.611,0.564,4.766,1.692c1.154,1.128,1.731,2.587,1.731,4.376v12.021H363.236z"/>
		<path fill="#00A287" d="M384.437,428.231l-0.156-1.751c-0.519,0.726-1.213,1.278-2.081,1.653
			c-0.869,0.376-1.939,0.564-3.209,0.564c-1.945,0-3.521-0.577-4.727-1.731c-1.206-1.154-1.809-2.69-1.809-4.61v-11.748h5.718
			v10.503c0,0.7,0.233,1.284,0.7,1.75c0.467,0.467,1.128,0.7,1.984,0.7s1.549-0.239,2.081-0.72c0.531-0.48,0.797-1.083,0.797-1.809
			v-10.426h5.718v17.622H384.437z"/>
		<path fill="#00A287" d="M398.445,428.776c-1.185,0-2.255-0.136-3.209-0.409c-0.954-0.272-1.766-0.628-2.436-1.07l-0.583-4.979
			c0.726,0.637,1.627,1.152,2.703,1.548c1.076,0.395,2.159,0.592,3.248,0.592c0.57,0,1.024-0.116,1.361-0.349
			c0.337-0.233,0.506-0.543,0.506-0.931c0-0.672-0.753-1.274-2.257-1.804c-1.504-0.53-2.71-1.287-3.618-2.27
			c-0.908-0.983-1.362-2.147-1.362-3.492c0-1.629,0.596-2.961,1.79-3.996c1.193-1.035,2.762-1.552,4.707-1.552
			c1.063,0,2.003,0.111,2.821,0.331c0.817,0.221,1.484,0.486,2.003,0.797l-0.428,4.318c-0.467-0.311-1.064-0.59-1.79-0.836
			c-0.726-0.246-1.478-0.37-2.256-0.37c-1.089,0-1.634,0.415-1.634,1.245c0,0.622,1.225,1.329,3.676,2.12
			c2.451,0.792,3.676,2.613,3.676,5.466c0,1.634-0.586,2.983-1.759,4.046C402.434,428.244,400.713,428.776,398.445,428.776z"/>
		<path fill="#00A287" d="M411.513,407.73c-0.454,0-1.042-0.37-1.761-1.109c-0.72-0.739-1.079-1.342-1.079-1.809
			c0-0.492,0.359-1.109,1.079-1.848c0.719-0.739,1.307-1.109,1.761-1.109c0.48,0,1.079,0.37,1.799,1.109
			c0.72,0.739,1.08,1.355,1.08,1.848c0,0.493-0.354,1.103-1.061,1.829C412.623,407.367,412.017,407.73,411.513,407.73z
			 M408.672,428.231v-17.622h5.719v17.622H408.672z"/>
		<path fill="#00A287" d="M432.713,416.25c-1.271-0.752-2.723-1.128-4.357-1.128c-1.375,0-2.509,0.389-3.404,1.167
			c-0.894,0.778-1.342,1.828-1.342,3.151c0,1.297,0.481,2.347,1.446,3.151c0.963,0.804,2.161,1.206,3.594,1.206
			c1.536,0,2.995-0.363,4.375-1.089l-0.467,5.096c-0.571,0.286-1.277,0.518-2.12,0.7c-0.843,0.181-1.77,0.272-2.782,0.272
			c-2.698,0-4.999-0.856-6.905-2.568c-1.906-1.712-2.859-3.968-2.859-6.769c0-2.826,0.947-5.096,2.84-6.808
			c1.893-1.712,4.175-2.568,6.847-2.568c1.193,0,2.237,0.104,3.131,0.311c0.895,0.208,1.718,0.519,2.47,0.934L432.713,416.25z"/>
		<path fill="#00A287" d="M450.685,428.776c-0.796,0-1.521-0.175-2.175-0.525c-0.654-0.35-1.161-0.836-1.521-1.459
			c-1.219,1.323-2.866,1.984-4.94,1.984c-1.842,0-3.365-0.525-4.571-1.576c-1.206-1.05-1.809-2.457-1.809-4.221
			c0-1.582,0.551-2.885,1.653-3.909c1.102-1.024,2.548-1.627,4.337-1.809l3.501-0.35v-0.622c0-0.57-0.221-1.017-0.661-1.342
			c-0.441-0.324-1.141-0.486-2.101-0.486c-0.986,0-1.945,0.117-2.879,0.35c-0.934,0.233-1.699,0.519-2.295,0.856l-0.428-4.357
			c0.648-0.363,1.517-0.661,2.606-0.895c1.089-0.233,2.191-0.35,3.306-0.35c2.49,0,4.441,0.615,5.855,1.843
			c1.413,1.229,2.12,2.968,2.12,5.218v5.044c0,1.526,0.674,2.393,2.023,2.6L450.685,428.776z M445.316,420.529l-2.373,0.233
			c-0.778,0.078-1.356,0.331-1.731,0.759c-0.376,0.428-0.564,0.94-0.564,1.537c0,0.493,0.175,0.901,0.525,1.225
			c0.35,0.325,0.797,0.486,1.342,0.486c0.726,0,1.375-0.253,1.945-0.759c0.57-0.506,0.856-1.121,0.856-1.848V420.529z"/>
		<path fill="#00A287" d="M460.993,429.009c-1.322,0-2.535-0.577-3.637-1.731c-1.103-1.154-1.654-2.704-1.654-4.649v-22.096h5.641
			v21.668c0,0.804,0.194,1.439,0.584,1.906c0.389,0.467,0.92,0.778,1.595,0.934L460.993,429.009z"/>
		<path fill="#00A287" d="M491.219,418.817l-2.295,2.256h-8.792c0.259,0.918,0.823,1.712,1.692,2.381
			c0.869,0.669,2.029,1.004,3.482,1.004c1.867,0,3.566-0.467,5.096-1.4l-0.506,4.707c-0.7,0.337-1.459,0.59-2.276,0.759
			c-0.817,0.168-1.809,0.253-2.976,0.253c-2.931,0-5.382-0.869-7.352-2.606c-1.971-1.737-2.956-4.02-2.956-6.847
			c0-2.775,0.888-5.012,2.664-6.711c1.776-1.698,3.948-2.548,6.516-2.548c2.359,0,4.266,0.687,5.718,2.062
			c1.452,1.375,2.179,3.022,2.179,4.941C491.414,417.663,491.349,418.247,491.219,418.817z M483.517,414.382
			c-0.882,0-1.647,0.272-2.295,0.817c-0.649,0.545-1.076,1.284-1.284,2.217h6.224l0.039-0.389c0-0.726-0.247-1.348-0.739-1.867
			C484.969,414.642,484.32,414.382,483.517,414.382z"/>
		<path fill="#00A287" d="M505.573,428.231v-10.503c0-0.7-0.233-1.284-0.7-1.75c-0.467-0.467-1.128-0.7-1.984-0.7
			s-1.55,0.24-2.081,0.72c-0.532,0.48-0.797,1.083-0.797,1.809v10.426h-5.718v-17.622h5.018l0.156,1.751
			c0.518-0.726,1.212-1.277,2.081-1.653c0.869-0.376,1.939-0.564,3.209-0.564c1.945,0,3.521,0.577,4.727,1.731
			c1.206,1.154,1.809,2.691,1.809,4.61v11.748H505.573z"/>
		<path fill="#00A287" d="M529.031,416.25c-1.271-0.752-2.723-1.128-4.357-1.128c-1.375,0-2.509,0.389-3.404,1.167
			c-0.894,0.778-1.342,1.828-1.342,3.151c0,1.297,0.481,2.347,1.446,3.151c0.963,0.804,2.161,1.206,3.594,1.206
			c1.536,0,2.995-0.363,4.375-1.089l-0.467,5.096c-0.57,0.286-1.277,0.518-2.12,0.7c-0.843,0.181-1.77,0.272-2.782,0.272
			c-2.698,0-4.999-0.856-6.905-2.568c-1.906-1.712-2.859-3.968-2.859-6.769c0-2.826,0.947-5.096,2.84-6.808
			c1.893-1.712,4.175-2.568,6.847-2.568c1.193,0,2.237,0.104,3.131,0.311c0.895,0.208,1.718,0.519,2.47,0.934L529.031,416.25z"/>
		<path fill="#00A287" d="M543.735,426.714c-1.219,3.164-2.587,5.634-4.104,7.411c-1.517,1.776-3.313,2.924-5.388,3.443
			l-2.334-3.696c1.4-0.467,2.561-1.18,3.482-2.14c0.92-0.96,1.796-2.425,2.626-4.396l-6.574-16.728h5.64l2.606,6.886
			c0.363,0.934,0.726,2.075,1.089,3.423c0.181-0.57,0.356-1.115,0.525-1.634c0.168-0.519,0.37-1.102,0.603-1.751l2.645-6.924h5.369
			L543.735,426.714z"/>
		<path fill="#00A287" d="M566.492,416.25c-1.271-0.752-2.723-1.128-4.357-1.128c-1.375,0-2.509,0.389-3.404,1.167
			c-0.894,0.778-1.342,1.828-1.342,3.151c0,1.297,0.481,2.347,1.446,3.151c0.963,0.804,2.161,1.206,3.593,1.206
			c1.536,0,2.995-0.363,4.375-1.089l-0.467,5.096c-0.571,0.286-1.278,0.518-2.12,0.7c-0.843,0.181-1.77,0.272-2.781,0.272
			c-2.698,0-4.999-0.856-6.905-2.568c-1.906-1.712-2.859-3.968-2.859-6.769c0-2.826,0.947-5.096,2.84-6.808
			c1.893-1.712,4.175-2.568,6.847-2.568c1.193,0,2.237,0.104,3.131,0.311c0.895,0.208,1.718,0.519,2.47,0.934L566.492,416.25z"/>
		<path fill="#00A287" d="M575.945,429.009c-1.322,0-2.535-0.577-3.637-1.731c-1.103-1.154-1.654-2.704-1.654-4.649v-22.096h5.641
			v21.668c0,0.804,0.194,1.439,0.584,1.906c0.389,0.467,0.92,0.778,1.595,0.934L575.945,429.009z"/>
		<path fill="#00A287" d="M590.182,428.776c-2.698,0-4.973-0.875-6.827-2.626c-1.855-1.751-2.782-3.988-2.782-6.711
			c0-2.723,0.92-4.966,2.762-6.73c1.841-1.763,4.123-2.645,6.846-2.645c2.697,0,4.966,0.882,6.808,2.645
			c1.841,1.764,2.762,4.007,2.762,6.73c0,2.697-0.921,4.928-2.762,6.691C595.148,427.894,592.879,428.776,590.182,428.776z
			 M590.182,414.888c-1.115,0-2.075,0.428-2.879,1.284c-0.804,0.856-1.206,1.945-1.206,3.268c0,1.297,0.395,2.367,1.187,3.209
			c0.791,0.843,1.756,1.264,2.898,1.264c1.115,0,2.075-0.428,2.879-1.284c0.803-0.856,1.206-1.919,1.206-3.19
			c0-1.296-0.395-2.379-1.186-3.248C592.289,415.323,591.323,414.888,590.182,414.888z"/>
		<path fill="#00A287" d="M611.694,428.776c-0.726,0-1.361-0.065-1.906-0.194c-0.545-0.13-1.012-0.311-1.4-0.545v9.181h-5.524
			v-26.609h4.474l0.155,1.284c0.441-0.57,1.076-1.005,1.906-1.303c0.83-0.298,1.802-0.447,2.918-0.447
			c2.256,0,4.298,0.836,6.127,2.509c1.828,1.673,2.742,3.858,2.742,6.555c0,2.827-0.901,5.129-2.703,6.905
			C616.68,427.888,614.417,428.776,611.694,428.776z M611.578,415.082c-1.271,0-2.334,0.403-3.19,1.206v6.497
			c0.389,0.337,0.849,0.603,1.381,0.797c0.531,0.194,1.134,0.292,1.809,0.292c1.193,0,2.179-0.415,2.957-1.245
			c0.778-0.83,1.167-1.88,1.167-3.151c0-1.27-0.389-2.321-1.167-3.151C613.756,415.498,612.77,415.082,611.578,415.082z"/>
		<path fill="#00A287" d="M640.364,418.817l-2.295,2.256h-8.792c0.259,0.918,0.823,1.712,1.692,2.381
			c0.869,0.669,2.029,1.004,3.482,1.004c1.867,0,3.566-0.467,5.096-1.4l-0.506,4.707c-0.7,0.337-1.459,0.59-2.276,0.759
			c-0.817,0.168-1.809,0.253-2.976,0.253c-2.931,0-5.382-0.869-7.352-2.606c-1.971-1.737-2.956-4.02-2.956-6.847
			c0-2.775,0.888-5.012,2.664-6.711c1.776-1.698,3.948-2.548,6.516-2.548c2.359,0,4.266,0.687,5.719,2.062
			c1.452,1.375,2.179,3.022,2.179,4.941C640.559,417.663,640.494,418.247,640.364,418.817z M632.662,414.382
			c-0.882,0-1.647,0.272-2.295,0.817c-0.649,0.545-1.077,1.284-1.284,2.217h6.224l0.039-0.389c0-0.726-0.247-1.348-0.739-1.867
			C634.114,414.642,633.465,414.382,632.662,414.382z"/>
		<path fill="#00A287" d="M656.703,428.231l-0.117-1.284c-0.908,1.167-2.528,1.75-4.863,1.75c-2.256,0-4.299-0.836-6.127-2.509
			c-1.828-1.673-2.742-3.857-2.742-6.555c0-2.826,0.901-5.128,2.704-6.905c1.802-1.776,4.065-2.665,6.788-2.665
			c0.726,0,1.362,0.065,1.906,0.195c0.545,0.13,1.011,0.311,1.4,0.545v-10.27h5.524v27.698H656.703z M655.652,416.055
			c-0.337-0.337-0.785-0.603-1.342-0.797c-0.558-0.194-1.174-0.292-1.848-0.292c-1.167,0-2.146,0.408-2.937,1.225
			c-0.792,0.817-1.187,1.874-1.187,3.17c0,1.271,0.402,2.321,1.206,3.151c0.804,0.83,1.776,1.245,2.918,1.245
			c1.323,0,2.386-0.402,3.19-1.206V416.055z"/>
		<path fill="#00A287" d="M668.14,407.73c-0.454,0-1.042-0.37-1.761-1.109c-0.72-0.739-1.079-1.342-1.079-1.809
			c0-0.492,0.359-1.109,1.079-1.848c0.72-0.739,1.307-1.109,1.761-1.109c0.48,0,1.079,0.37,1.799,1.109
			c0.72,0.739,1.08,1.355,1.08,1.848c0,0.493-0.354,1.103-1.061,1.829C669.251,407.367,668.645,407.73,668.14,407.73z
			 M665.3,428.231v-17.622h5.718v17.622H665.3z"/>
		<path fill="#00A287" d="M689.496,428.776c-0.796,0-1.521-0.175-2.175-0.525c-0.654-0.35-1.161-0.836-1.521-1.459
			c-1.219,1.323-2.866,1.984-4.94,1.984c-1.842,0-3.365-0.525-4.571-1.576c-1.206-1.05-1.809-2.457-1.809-4.221
			c0-1.582,0.551-2.885,1.653-3.909c1.102-1.024,2.548-1.627,4.337-1.809l3.501-0.35v-0.622c0-0.57-0.221-1.017-0.661-1.342
			c-0.441-0.324-1.141-0.486-2.101-0.486c-0.986,0-1.945,0.117-2.879,0.35c-0.934,0.233-1.699,0.519-2.295,0.856l-0.428-4.357
			c0.648-0.363,1.517-0.661,2.606-0.895c1.089-0.233,2.191-0.35,3.307-0.35c2.49,0,4.441,0.615,5.855,1.843
			c1.413,1.229,2.12,2.968,2.12,5.218v5.044c0,1.526,0.674,2.393,2.023,2.6L689.496,428.776z M684.128,420.529l-2.373,0.233
			c-0.778,0.078-1.356,0.331-1.731,0.759c-0.376,0.428-0.564,0.94-0.564,1.537c0,0.493,0.175,0.901,0.525,1.225
			c0.35,0.325,0.797,0.486,1.342,0.486c0.726,0,1.375-0.253,1.945-0.759c0.57-0.506,0.856-1.121,0.856-1.848V420.529z"/>
	</g>
	<g>
		<path fill="#00A287" d="M376.474,388.999v-49.811c0-2.857-1.044-5.147-3.125-6.873c-2.083-1.724-4.91-2.589-8.48-2.589
			c-3.691,0-6.695,0.892-9.016,2.678c-2.321,1.785-3.481,4.168-3.481,7.141v49.454h-26.244v-49.811c0-2.857-1.044-5.147-3.125-6.873
			c-2.083-1.724-5.029-2.589-8.837-2.589c-3.571,0-6.517,0.923-8.837,2.767c-2.321,1.847-3.481,4.195-3.481,7.052v49.454h-26.244
			v-80.876h23.031l0.714,8.034c2.259-2.974,5.383-5.415,9.373-7.32c3.986-1.902,8.717-2.856,14.194-2.856
			c5.116,0,9.641,0.954,13.568,2.856c3.928,1.905,7.08,4.405,9.462,7.499c2.5-2.973,6.187-5.445,11.069-7.409
			c4.879-1.964,10.177-2.946,15.89-2.946c9.284,0,16.574,2.588,21.871,7.766c5.295,5.178,7.945,11.873,7.945,20.085v55.168H376.474z
			"/>
		<path fill="#00A287" d="M473.774,388.999l-0.714-8.034c-2.382,3.334-5.566,5.864-9.552,7.588
			c-3.989,1.724-8.899,2.588-14.729,2.588c-8.927,0-16.158-2.647-21.692-7.945c-5.535-5.295-8.301-12.346-8.301-21.156v-53.918
			h26.244v48.205c0,3.214,1.071,5.891,3.214,8.034c2.142,2.143,5.177,3.214,9.105,3.214s7.111-1.098,9.552-3.302
			c2.438-2.202,3.66-4.968,3.66-8.302v-47.847h26.244v80.876H473.774z"/>
		<path fill="#00A287" d="M538.061,391.499c-5.44,0-10.349-0.625-14.726-1.875c-4.377-1.249-8.103-2.884-11.178-4.91l-2.678-22.853
			c3.331,2.924,7.468,5.289,12.408,7.102c4.938,1.813,9.909,2.717,14.908,2.717c2.617,0,4.7-0.533,6.249-1.602
			c1.545-1.068,2.321-2.494,2.321-4.273c0-3.085-3.454-5.847-10.356-8.28c-6.904-2.432-12.438-5.905-16.604-10.416
			c-4.168-4.511-6.249-9.853-6.249-16.027c0-7.476,2.737-13.591,8.213-18.338c5.474-4.748,12.676-7.122,21.603-7.122
			c4.879,0,9.195,0.508,12.944,1.518c3.749,1.013,6.812,2.232,9.195,3.66l-1.964,19.817c-2.142-1.428-4.882-2.706-8.213-3.838
			c-3.333-1.13-6.785-1.696-10.355-1.696c-4.999,0-7.499,1.905-7.499,5.713c0,2.856,5.624,6.101,16.872,9.73
			c11.248,3.633,16.872,11.993,16.872,25.084c0,7.499-2.692,13.689-8.073,18.568C556.366,389.058,548.472,391.499,538.061,391.499z"
			/>
		<path fill="#00A287" d="M598.034,294.911c-2.087,0-4.782-1.696-8.084-5.088c-3.303-3.392-4.952-6.159-4.952-8.302
			c0-2.259,1.648-5.088,4.952-8.48c3.302-3.393,5.998-5.089,8.084-5.089c2.201,0,4.951,1.696,8.254,5.089
			c3.303,3.392,4.955,6.22,4.955,8.48c0,2.263-1.625,5.061-4.869,8.392C603.13,293.246,600.349,294.911,598.034,294.911z
			 M584.998,388.999v-80.876h26.244v80.876H584.998z"/>
		<path fill="#00A287" d="M743.891,415.601c-0.598,0-1.311,0-2.143,0c-0.834,0-1.488,0-1.964,0c-10.474,0-19.668-2.352-27.582-7.052
			c-7.917-4.703-14.076-8.301-18.48-10.801c-4.405-2.5-8.453-4.703-12.14-6.606c-14.88-1.905-27.495-8.151-37.85-18.746
			c-10.355-10.592-15.533-24.04-15.533-40.349c0-17.614,6.099-31.986,18.3-43.116c12.198-11.128,26.571-16.693,43.117-16.693
			c16.424,0,30.735,5.565,42.936,16.693c12.2,11.13,18.3,25.502,18.3,43.116c0,12.497-3.512,23.597-10.534,33.296
			c-7.023,9.703-15.531,16.158-25.53,19.371c2.022,0.598,3.839,1.25,5.444,1.964c1.607,0.714,4.165,1.995,7.678,3.839
			c3.509,1.844,6.842,3.152,9.998,3.928c3.151,0.773,6.097,1.16,8.836,1.16c2.26,0,4.224-0.12,5.891-0.357
			c1.666-0.24,3.511-0.776,5.535-1.607L743.891,415.601z M689.618,296.697c-8.927,0-16.693,3.303-23.3,9.909
			c-6.606,6.606-9.908,15.086-9.908,25.442c0,10.118,3.302,18.478,9.908,25.084c6.606,6.605,14.373,9.909,23.3,9.909
			c8.806,0,16.514-3.242,23.119-9.73c6.606-6.486,9.909-14.908,9.909-25.263c0-10.356-3.303-18.835-9.909-25.442
			C706.132,300,698.424,296.697,689.618,296.697z"/>
	</g>
</g>
</svg>
