<?xml version="1.0" encoding="utf-8"?>
<!-- Generator: Adobe Illustrator 17.0.0, SVG Export Plug-In . SVG Version: 6.00 Build 0)  -->
<!DOCTYPE svg PUBLIC "-//W3C//DTD SVG 1.1//EN" "http://www.w3.org/Graphics/SVG/1.1/DTD/svg11.dtd">
<svg version="1.1" id="Capa_1" xmlns="http://www.w3.org/2000/svg" xmlns:xlink="http://www.w3.org/1999/xlink" x="0px" y="0px"
	 width="96px" height="96px" viewBox="0 0 96 96" enable-background="new 0 0 96 96" xml:space="preserve">
<g>
	<g>
		<g>
			<defs>
				<filter id="Adobe_OpacityMaskFilter" filterUnits="userSpaceOnUse" x="9.854" y="8.76" width="76.974" height="76.974">
					
						<feColorMatrix  type="matrix" values="-1 0 0 0 1  0 -1 0 0 1  0 0 -1 0 1  0 0 0 1 0" color-interpolation-filters="sRGB" result="source"/>
					<feFlood  style="flood-color:white;flood-opacity:1" result="back"/>
					<feBlend  in="source" in2="back" mode="normal"/>
				</filter>
			</defs>
			<mask maskUnits="userSpaceOnUse" x="9.854" y="8.76" width="76.974" height="76.974" id="SVGID_1_">
				<g filter="url(#Adobe_OpacityMaskFilter)">
					<circle fill="#FFFFFF" cx="48.628" cy="47.247" r="35.833"/>
					<rect x="8.242" y="47.046" fill="#FFFFFF" width="80.601" height="40.703"/>
				</g>
			</mask>
			<circle mask="url(#SVGID_1_)" fill="#00A287" cx="48.341" cy="47.247" r="38.487"/>
			<g>
				<path fill="#00A287" d="M83,36.748c4,0,10.802,4.836,10.802,10.802S87,58.351,83,58.351V36.748z"/>
			</g>
			<g>
				<path fill="#00A287" d="M14,36.748c-4,0-10.802,4.836-10.802,10.802S10,58.351,14,58.351V36.748z"/>
			</g>
		</g>
		<g>
			<defs>
				<filter id="Adobe_OpacityMaskFilter_1_" filterUnits="userSpaceOnUse" x="15.899" y="14.805" width="64.884" height="64.884">
					
						<feColorMatrix  type="matrix" values="-1 0 0 0 1  0 -1 0 0 1  0 0 -1 0 1  0 0 0 1 0" color-interpolation-filters="sRGB" result="source"/>
					<feFlood  style="flood-color:white;flood-opacity:1" result="back"/>
					<feBlend  in="source" in2="back" mode="normal"/>
				</filter>
			</defs>
			<mask maskUnits="userSpaceOnUse" x="15.899" y="14.805" width="64.884" height="64.884" id="SVGID_2_">
				<g filter="url(#Adobe_OpacityMaskFilter_1_)">
					<circle fill="#FFFFFF" cx="48.341" cy="47.247" r="21.458"/>
				</g>
			</mask>
			<circle mask="url(#SVGID_2_)" fill="#00A287" cx="48.341" cy="47.247" r="32.442"/>
			<defs>
				<filter id="Adobe_OpacityMaskFilter_2_" filterUnits="userSpaceOnUse" x="38.817" y="74.563" width="37.912" height="15.289">
					
						<feColorMatrix  type="matrix" values="-1 0 0 0 1  0 -1 0 0 1  0 0 -1 0 1  0 0 0 1 0" color-interpolation-filters="sRGB" result="source"/>
					<feFlood  style="flood-color:white;flood-opacity:1" result="back"/>
					<feBlend  in="source" in2="back" mode="normal"/>
				</filter>
			</defs>
			<mask maskUnits="userSpaceOnUse" x="38.817" y="74.563" width="37.912" height="15.289" id="SVGID_3_">
				<g filter="url(#Adobe_OpacityMaskFilter_2_)">
					<polygon fill="#FFFFFF" points="76.086,81.133 69.856,90.029 63.945,83.779 77.435,78.668 					"/>
				</g>
			</mask>
			<path mask="url(#SVGID_3_)" fill="#00A287" d="M55.254,74.563c1.001,0.295,1.9,0.619,2.695,0.972
				c0.795,0.354,2.062,0.987,3.8,1.9c1.737,0.913,3.387,1.56,4.949,1.944c1.56,0.383,3.019,0.575,4.374,0.575
				c1.118,0,2.09-0.059,2.916-0.177c0.824-0.118,1.737-0.384,2.739-0.795l-7.07,10.87c-0.295,0-0.649,0-1.061,0
				c-0.413,0-0.737,0-0.972,0c-5.185,0-9.736-1.164-13.654-3.491c-3.919-2.328-6.968-4.109-9.147-5.347
				c-2.18-1.237-4.184-2.328-6.009-3.27L55.254,74.563z"/>
		</g>
	</g>
	<defs>
		<filter id="Adobe_OpacityMaskFilter_3_" filterUnits="userSpaceOnUse" x="39.281" y="33.215" width="24.689" height="28.156">
			
				<feColorMatrix  type="matrix" values="-1 0 0 0 1  0 -1 0 0 1  0 0 -1 0 1  0 0 0 1 0" color-interpolation-filters="sRGB" result="source"/>
			<feFlood  style="flood-color:white;flood-opacity:1" result="back"/>
			<feBlend  in="source" in2="back" mode="normal"/>
		</filter>
	</defs>
	<mask maskUnits="userSpaceOnUse" x="39.281" y="33.215" width="24.689" height="28.156" id="SVGID_4_">
		<g filter="url(#Adobe_OpacityMaskFilter_3_)">
			<g>
				<rect x="42.42" y="40.274" fill="#FFFFFF" width="8.818" height="0.678"/>
				<rect x="42.42" y="53.84" fill="#FFFFFF" width="8.818" height="0.678"/>
				<rect x="43.776" y="43.666" fill="#FFFFFF" width="12.21" height="0.678"/>
				<rect x="43.776" y="50.449" fill="#FFFFFF" width="12.21" height="0.678"/>
				<rect x="40.385" y="47.057" fill="#FFFFFF" width="12.21" height="0.678"/>
			</g>
		</g>
	</mask>
	<g mask="url(#SVGID_4_)">
		<path fill="#00A287" d="M63.385,48.305l-14.087,8.132l-1.877,1.084l-6.39,3.689c-0.527,0.304-0.992,0.101-1.168,0
			c-0.176-0.102-0.584-0.404-0.584-1.012v-25.81c0-0.61,0.409-0.911,0.584-1.012c0.107-0.061,0.32-0.161,0.59-0.161
			c0.174,0,0.371,0.041,0.578,0.161l7.015,4.05l15.338,8.856c0.527,0.304,0.584,0.809,0.584,1.011
			C63.97,47.496,63.913,48.001,63.385,48.305z"/>
	</g>
</g>
</svg>
